<svg width="36" height="36" viewBox="0 0 36 36" fill="none" xmlns="http://www.w3.org/2000/svg">
<path d="M11.1 25.875C10.05 26.75 8.95625 27.15 7.81875 27.075C6.68125 27 5.6875 26.6125 4.8375 25.9125C3.9875 25.2125 3.40625 24.2938 3.09375 23.1562C2.78125 22.0188 2.9875 20.85 3.7125 19.65L6.525 15C5.9 14.45 5.40625 13.7875 5.04375 13.0125C4.68125 12.2375 4.5 11.4 4.5 10.5C4.5 8.85 5.0875 7.4375 6.2625 6.2625C7.4375 5.0875 8.85 4.5 10.5 4.5C12.15 4.5 13.5625 5.0875 14.7375 6.2625C15.9125 7.4375 16.5 8.85 16.5 10.5C16.5 12.15 15.9125 13.5625 14.7375 14.7375C13.5625 15.9125 12.15 16.5 10.5 16.5C10.275 16.5 10.05 16.4875 9.825 16.4625C9.6 16.4375 9.3875 16.4 9.1875 16.35L6.3 21.225C6.025 21.675 5.9375 22.1188 6.0375 22.5563C6.1375 22.9938 6.35 23.35 6.675 23.625C7 23.9 7.3875 24.0563 7.8375 24.0938C8.2875 24.1313 8.725 23.975 9.15 23.625L24.9 10.0875C25.95 9.2125 27.05 8.81875 28.2 8.90625C29.35 8.99375 30.35 9.3875 31.2 10.0875C32.05 10.7875 32.625 11.7063 32.925 12.8438C33.225 13.9813 33.0125 15.15 32.2875 16.35L29.475 21C30.1 21.55 30.5938 22.2125 30.9563 22.9875C31.3188 23.7625 31.5 24.6 31.5 25.5C31.5 27.15 30.9125 28.5625 29.7375 29.7375C28.5625 30.9125 27.15 31.5 25.5 31.5C23.85 31.5 22.4375 30.9125 21.2625 29.7375C20.0875 28.5625 19.5 27.15 19.5 25.5C19.5 23.85 20.0875 22.4375 21.2625 21.2625C22.4375 20.0875 23.85 19.5 25.5 19.5C25.725 19.5 25.9438 19.5125 26.1563 19.5375C26.3688 19.5625 26.575 19.6 26.775 19.65L29.7 14.775C29.975 14.325 30.0625 13.8813 29.9625 13.4438C29.8625 13.0063 29.65 12.65 29.325 12.375C29 12.1 28.6125 11.9438 28.1625 11.9063C27.7125 11.8688 27.275 12.025 26.85 12.375L11.1 25.875ZM10.5 13.5C11.325 13.5 12.0312 13.2063 12.6187 12.6188C13.2063 12.0313 13.5 11.325 13.5 10.5C13.5 9.675 13.2063 8.96875 12.6187 8.38125C12.0312 7.79375 11.325 7.5 10.5 7.5C9.675 7.5 8.96875 7.79375 8.38125 8.38125C7.79375 8.96875 7.5 9.675 7.5 10.5C7.5 11.325 7.79375 12.0313 8.38125 12.6188C8.96875 13.2063 9.675 13.5 10.5 13.5ZM25.5 28.5C26.325 28.5 27.0313 28.2063 27.6188 27.6188C28.2063 27.0312 28.5 26.325 28.5 25.5C28.5 24.675 28.2063 23.9688 27.6188 23.3813C27.0313 22.7938 26.325 22.5 25.5 22.5C24.675 22.5 23.9688 22.7938 23.3813 23.3813C22.7938 23.9688 22.5 24.675 22.5 25.5C22.5 26.325 22.7938 27.0312 23.3813 27.6188C23.9688 28.2063 24.675 28.5 25.5 28.5Z" fill="black"/>
</svg>
