<svg width="133" height="18" viewBox="0 0 133 18" fill="none" xmlns="http://www.w3.org/2000/svg">
<path d="M16.793 15.8203C16.793 16.0391 16.75 16.2422 16.6641 16.4297C16.5859 16.6172 16.4766 16.7812 16.3359 16.9219C16.2031 17.0547 16.043 17.1602 15.8555 17.2383C15.668 17.3164 15.4688 17.3555 15.2578 17.3555C15.0703 17.3555 14.8789 17.3203 14.6836 17.25C14.4961 17.1797 14.3281 17.0664 14.1797 16.9102L3.04688 5.28516V17.1211H0V1.61719C0 1.30469 0.0859375 1.02344 0.257812 0.773438C0.4375 0.515625 0.664062 0.324219 0.9375 0.199219C1.22656 0.0820312 1.52344 0.0546875 1.82812 0.117188C2.13281 0.171875 2.39453 0.3125 2.61328 0.539062L13.7461 12.1523V0.316406H16.793V15.8203ZM34.1602 10.2539H24.5391V7.18359H34.1602V10.2539ZM35.5312 17.1211H24.5391C24.1172 17.1211 23.6562 17.0469 23.1562 16.8984C22.6562 16.75 22.1914 16.5078 21.7617 16.1719C21.3398 15.8281 20.9844 15.3867 20.6953 14.8477C20.4141 14.3008 20.2734 13.6328 20.2734 12.8438V1.85156C20.2734 1.64062 20.3125 1.44141 20.3906 1.25391C20.4688 1.06641 20.5742 0.902344 20.707 0.761719C20.8477 0.621094 21.0117 0.511719 21.1992 0.433594C21.3867 0.355469 21.5898 0.316406 21.8086 0.316406H35.5312V3.36328H23.3203V12.8438C23.3203 13.2422 23.4258 13.5469 23.6367 13.7578C23.8477 13.9688 24.1562 14.0742 24.5625 14.0742H35.5312V17.1211ZM46.1602 6.31641L51.293 0.316406H55.4531L48.2227 8.74219L55.4062 17.1211H51.2695L46.1602 11.168L41.0742 17.1211H36.9258L44.0977 8.74219L36.9023 0.316406H41.0273L46.1602 6.31641ZM72.5625 3.36328H65.8477V17.1211H62.8008V3.36328H56.0742V0.316406H72.5625V3.36328ZM89.8594 17.1211H78.8672C78.5859 17.1211 78.2812 17.0898 77.9531 17.0273C77.6328 16.957 77.3125 16.8516 76.9922 16.7109C76.6797 16.5703 76.3789 16.3906 76.0898 16.1719C75.8008 15.9453 75.543 15.6758 75.3164 15.3633C75.0977 15.043 74.9219 14.6758 74.7891 14.2617C74.6562 13.8398 74.5898 13.3672 74.5898 12.8438V4.59375C74.5898 4.3125 74.6211 4.01172 74.6836 3.69141C74.7539 3.36328 74.8594 3.04297 75 2.73047C75.1406 2.41016 75.3242 2.10547 75.5508 1.81641C75.7773 1.52734 76.0469 1.27344 76.3594 1.05469C76.6797 0.828125 77.0469 0.648437 77.4609 0.515625C77.875 0.382813 78.3438 0.316406 78.8672 0.316406H89.8594V3.36328H78.8672C78.4688 3.36328 78.1641 3.46875 77.9531 3.67969C77.7422 3.89062 77.6367 4.20312 77.6367 4.61719V12.8438C77.6367 13.2344 77.7422 13.5391 77.9531 13.7578C78.1719 13.9688 78.4766 14.0742 78.8672 14.0742H89.8594V17.1211ZM109.535 5.96484C109.535 6.66016 109.449 7.28125 109.277 7.82812C109.105 8.375 108.871 8.85938 108.574 9.28125C108.285 9.69531 107.949 10.0508 107.566 10.3477C107.184 10.6445 106.781 10.8906 106.359 11.0859C105.945 11.2734 105.523 11.4102 105.094 11.4961C104.672 11.582 104.273 11.625 103.898 11.625L110.262 17.1211H105.551L99.1992 11.625H97.0078V8.57812H103.898C104.281 8.54688 104.629 8.46875 104.941 8.34375C105.262 8.21094 105.535 8.03516 105.762 7.81641C105.996 7.59766 106.176 7.33594 106.301 7.03125C106.426 6.71875 106.488 6.36328 106.488 5.96484V4.04297C106.488 3.87109 106.465 3.74219 106.418 3.65625C106.379 3.5625 106.324 3.49609 106.254 3.45703C106.191 3.41016 106.121 3.38281 106.043 3.375C105.973 3.36719 105.906 3.36328 105.844 3.36328H95.7891V17.1211H92.7422V1.85156C92.7422 1.64062 92.7812 1.44141 92.8594 1.25391C92.9375 1.06641 93.043 0.902344 93.1758 0.761719C93.3164 0.621094 93.4805 0.511719 93.668 0.433594C93.8555 0.355469 94.0586 0.316406 94.2773 0.316406H105.844C106.523 0.316406 107.098 0.441406 107.566 0.691406C108.035 0.933594 108.414 1.24219 108.703 1.61719C109 1.98438 109.211 2.38281 109.336 2.8125C109.469 3.24219 109.535 3.64453 109.535 4.01953V5.96484ZM132.152 17.1211H129.082V7.11328L123.68 16.6172C123.547 16.8594 123.359 17.043 123.117 17.168C122.883 17.293 122.629 17.3555 122.355 17.3555C122.09 17.3555 121.84 17.293 121.605 17.168C121.379 17.043 121.199 16.8594 121.066 16.6172L115.641 7.11328V17.1211H112.594V1.61719C112.594 1.26562 112.695 0.953125 112.898 0.679688C113.109 0.40625 113.383 0.222656 113.719 0.128906C113.883 0.0898438 114.047 0.078125 114.211 0.09375C114.375 0.101563 114.531 0.136719 114.68 0.199219C114.836 0.253906 114.977 0.335938 115.102 0.445312C115.227 0.546875 115.332 0.671875 115.418 0.820312L122.355 12.8789L129.293 0.820312C129.473 0.523438 129.719 0.3125 130.031 0.1875C130.352 0.0625 130.684 0.0429688 131.027 0.128906C131.355 0.222656 131.625 0.40625 131.836 0.679688C132.047 0.953125 132.152 1.26562 132.152 1.61719V17.1211Z" fill="black"/>
</svg>
